<svg width="343" height="30" viewBox="0 0 343 30" fill="none" xmlns="http://www.w3.org/2000/svg">
<path d="M324.5 30V0H330.5V24H342.5V30H324.5Z" fill="white"/>
<path d="M288.5 30V6H294.5V0H306.5V6H312.5V30H306.5V18H294.5V30H288.5ZM294.5 12H306.5V6.24H294.5V12Z" fill="white"/>
<path d="M258.5 30V24H252.5V0H258.5V24H270.5V30H258.5ZM270.5 24V0H276.5V24H270.5Z" fill="white"/>
<path d="M228.5 30V6H222.5V0H240.5V6H234.5V30H228.5Z" fill="white"/>
<path d="M204.5 12V6H192.5V0H204.5V6H210.5V12H204.5ZM192.5 30V24H186.5V6H192.5V24H204.5V30H192.5ZM204.5 24V18H210.5V24H204.5Z" fill="white"/>
<path d="M150.5 30V6H156.5V0H168.5V6H174.5V30H168.5V18H156.5V30H150.5ZM156.5 12H168.5V6.24H156.5V12Z" fill="white"/>
<path d="M120.5 30V0H138.5V6H126.5V12H138.5V18H126.5V30H120.5Z" fill="white"/>
<path d="M102.5 30V0H108.5V30H102.5Z" fill="white"/>
<path d="M78.5 30V6H72.5V0H90.5V6H84.5V30H78.5Z" fill="white"/>
<path d="M36.5 30V0H54.5V6H60.5V12H54.5V24H60.5V30H54.5V24H48.5V18H42.5V30H36.5ZM42.5 12H54.26V6H42.5V12Z" fill="white"/>
<path d="M0.5 30V6H6.5V0H18.5V6H24.5V30H18.5V18H6.5V30H0.5ZM6.5 12H18.5V6.24H6.5V12Z" fill="white"/>
</svg>
